<svg width="22" height="22" viewBox="0 0 22 22" fill="none" xmlns="http://www.w3.org/2000/svg">
<path fill-rule="evenodd" clip-rule="evenodd" d="M4.36191 7.63335C3.76215 7.63335 3.27144 8.12407 3.27144 8.72383C3.27144 9.32359 3.76215 9.81431 4.36191 9.81431C4.96168 9.81431 5.45239 9.32359 5.45239 8.72383C5.45239 8.12407 4.96168 7.63335 4.36191 7.63335ZM20.7191 20.381L15.2667 17.6548V13.6964C14.9177 13.8164 14.547 13.9363 14.1762 14.0126V17.633L7.63335 20.4356V12.5296C7.24078 12.2352 6.88092 11.908 6.54287 11.5482V20.381L1.09048 17.6548V10.9048C1.69024 10.9048 2.18096 10.4141 2.18096 9.81431C2.18096 9.21454 1.69024 8.72383 1.09048 8.72383V1.42853L4.83082 3.29325C4.95077 2.9552 5.09253 2.61715 5.25611 2.29L0.785145 0.0545239C0.708811 0.0218096 0.632478 0 0.545239 0C0.239905 0 0 0.239905 0 0.545239V17.9929C0 18.211 0.130857 18.3855 0.305334 18.4727L6.84821 21.7441C6.92454 21.7878 7.00087 21.8096 7.08811 21.8096C7.16444 21.8096 7.24078 21.7987 7.30621 21.766L14.7106 18.5927L21.0244 21.755C21.1008 21.7878 21.1771 21.8096 21.2643 21.8096C21.5697 21.8096 21.8096 21.5697 21.8096 21.2643V16.6734C21.4715 16.8152 21.1117 16.9024 20.7191 16.9024V20.381ZM10.9048 5.45239C10.305 5.45239 9.81431 5.94311 9.81431 6.54287C9.81431 7.14263 10.305 7.63335 10.9048 7.63335C11.5045 7.63335 11.9953 7.14263 11.9953 6.54287C11.9953 5.94311 11.5045 5.45239 10.9048 5.45239ZM14.1762 4.36191C13.5765 4.36191 13.0857 4.85263 13.0857 5.45239C13.0857 6.05216 13.5765 6.54287 14.1762 6.54287C14.776 6.54287 15.2667 6.05216 15.2667 5.45239C15.2667 4.85263 14.776 4.36191 14.1762 4.36191ZM21.5042 3.33686L19.9449 2.55172C20.1629 3.02063 20.3374 3.52225 20.4683 4.03477L20.7191 4.15472V5.99763C20.1193 5.99763 19.6286 6.48835 19.6286 7.08811C19.6286 7.68787 20.1193 8.17859 20.7191 8.17859V10.3159L21.8096 11.4064V3.81667C21.8096 3.59858 21.6787 3.4241 21.5042 3.33686ZM17.4804 9.39992C17.633 9.17092 17.7748 8.94192 17.8948 8.69111C17.9166 8.64749 17.9384 8.61478 17.9493 8.57116C18.0692 8.33126 18.1674 8.08045 18.2546 7.81873C18.2546 7.81873 18.2546 7.81873 18.2546 7.80783C18.3309 7.54611 18.3964 7.2844 18.44 7.01178C18.4509 6.94635 18.4618 6.89182 18.4727 6.8264C18.5163 6.55378 18.5381 6.28116 18.5381 5.99763C18.5381 2.68258 15.8556 0 12.5405 0C9.22545 0 6.54287 2.68258 6.54287 5.99763C6.54287 9.31269 9.22545 11.9953 12.5405 11.9953C12.824 11.9953 13.0966 11.9735 13.3693 11.9298C13.4347 11.9189 13.4892 11.908 13.5546 11.8971C13.8273 11.8535 14.089 11.7881 14.3507 11.7117H14.3616C14.6233 11.6245 14.8741 11.5264 15.114 11.4064C15.1577 11.3846 15.1904 11.3737 15.234 11.3519C15.4848 11.2319 15.7138 11.0902 15.9428 10.9375L16.1391 11.1338L19.9558 14.9505C20.1411 15.1467 20.4138 15.2667 20.7191 15.2667C21.3189 15.2667 21.8096 14.776 21.8096 14.1762C21.8096 13.8709 21.6896 13.5983 21.4933 13.402L17.4804 9.39992ZM12.5405 10.3595C10.1305 10.3595 8.17859 8.40759 8.17859 5.99763C8.17859 3.58767 10.1305 1.63572 12.5405 1.63572C14.9505 1.63572 16.9024 3.58767 16.9024 5.99763C16.9024 8.40759 14.9505 10.3595 12.5405 10.3595Z" fill="white"/>
</svg>
