<svg width="26" height="28" viewBox="0 0 26 28" fill="none" xmlns="http://www.w3.org/2000/svg">
<path d="M13.8564 13.9999C15.9078 13.9999 17.5707 12.3369 17.5707 10.2856C17.5707 8.23423 15.9078 6.57129 13.8564 6.57129C11.8051 6.57129 10.1422 8.23423 10.1422 10.2856C10.1422 12.3369 11.8051 13.9999 13.8564 13.9999Z" stroke="white" stroke-width="1.5" stroke-linecap="round" stroke-linejoin="round"/>
<path d="M0.856445 6.57143H2.71359V4.71429C2.71359 2.66294 4.37653 1 6.42787 1H21.285C23.3364 1 24.9993 2.66294 24.9993 4.71429V23.2857C24.9993 25.3371 23.3364 27 21.285 27H6.42787C4.37653 27 2.71359 25.3371 2.71359 23.2857V21.4286H0.856445" stroke="white" stroke-width="1.5" stroke-linecap="round" stroke-linejoin="round"/>
<path d="M0.856445 14H2.71359" stroke="white" stroke-width="1.5" stroke-linecap="round" stroke-linejoin="round"/>
<path d="M0.856445 10.2856H2.71359" stroke="white" stroke-width="1.5" stroke-linecap="round" stroke-linejoin="round"/>
<path d="M0.856445 17.7144H2.71359" stroke="white" stroke-width="1.5" stroke-linecap="round" stroke-linejoin="round"/>
<path fill-rule="evenodd" clip-rule="evenodd" d="M19.4279 19.5714V17.7143C19.4279 15.6629 17.7649 14 15.7136 14H11.9993C9.94796 14 8.28502 15.6629 8.28502 17.7143V19.5714C8.28502 20.5971 9.11649 21.4286 10.1422 21.4286H17.5707C18.5964 21.4286 19.4279 20.5971 19.4279 19.5714Z" stroke="white" stroke-width="1.5" stroke-linecap="round" stroke-linejoin="round"/>
</svg>
