<svg width="26" height="26" viewBox="0 0 26 26" fill="none" xmlns="http://www.w3.org/2000/svg">
<path d="M21.85 15.35H22.1H24.7C24.9785 15.35 25.2456 15.2394 25.4425 15.0425C25.6394 14.8455 25.75 14.5785 25.75 14.3C25.75 14.0215 25.6394 13.7545 25.4425 13.5575C25.2456 13.3606 24.9785 13.25 24.7 13.25H22.1H21.85V13V11.7024C21.8387 11.1267 21.7504 10.5551 21.5872 10.0028L21.5218 9.78127L21.7375 9.69857C22.9125 9.2481 23.9241 8.45345 24.64 7.4186C25.3558 6.38395 25.7427 5.15736 25.75 3.89927C25.7498 3.62106 25.6392 3.35428 25.4425 3.15754C25.2456 2.96062 24.9785 2.85 24.7 2.85C24.4215 2.85 24.1544 2.96062 23.9575 3.15754C23.7606 3.35445 23.65 3.62152 23.65 3.9V3.90034C23.6488 4.79238 23.3602 5.66028 22.8269 6.3754C22.2937 7.09052 21.5443 7.61479 20.6897 7.87051L20.526 7.91948L20.4209 7.7848C19.8044 6.99476 19.007 6.36455 18.0959 5.9473L17.9372 5.87463L17.9508 5.70062C17.9632 5.54045 17.9632 5.37955 17.9508 5.21938L17.95 5.20971V5.2C17.95 3.88718 17.4285 2.62813 16.5002 1.69982C15.5719 0.771516 14.3128 0.25 13 0.25C11.6872 0.25 10.4281 0.771516 9.49982 1.69982C8.57152 2.62813 8.05 3.88718 8.05 5.2V5.2097L8.04925 5.21938C8.03679 5.37955 8.03679 5.54045 8.04925 5.70062L8.06297 5.87715L7.901 5.94869C6.97177 6.35908 6.15658 6.98978 5.526 7.78619L5.41917 7.92111L5.255 7.86948C4.41072 7.60397 3.67344 7.07551 3.15081 6.36125C2.62826 5.64709 2.34767 4.7846 2.35 3.89969M21.85 15.35L2.6 3.9M21.85 15.35V15.6M21.85 15.35V15.6M2.35 3.89969C2.35 3.89957 2.35 3.89944 2.35 3.89932L2.6 3.9M2.35 3.89969C2.35 3.89979 2.35 3.8999 2.35 3.9H2.6M2.35 3.89969C2.34992 3.62133 2.2393 3.35438 2.04246 3.15754C1.84555 2.96062 1.57848 2.85 1.3 2.85C1.02152 2.85 0.754451 2.96062 0.557538 3.15754C0.360786 3.35429 0.250182 3.62108 0.25 3.89931M2.6 3.9C2.6 3.55522 2.46304 3.22456 2.21924 2.98076C1.97544 2.73696 1.64478 2.6 1.3 2.6C0.955218 2.6 0.624558 2.73696 0.380761 2.98076C0.136964 3.22456 0 3.55522 0 3.9M0.25 3.89931C0.249999 3.89907 0.249997 3.89882 0.249996 3.89857L0 3.9M0.25 3.89931C0.25 3.89954 0.25 3.89977 0.25 3.9H0M0.25 3.89931L0 3.9M23.4 24.7C23.3965 23.9418 23.172 23.2011 22.7541 22.5685C22.3362 21.9358 21.743 21.4387 21.047 21.138C20.2739 22.6021 19.116 23.8275 17.698 24.6823C16.28 25.5371 14.6557 25.9888 13 25.9888C11.3443 25.9888 9.71999 25.5371 8.30201 24.6823C6.88403 23.8275 5.72612 22.6021 4.953 21.138C4.257 21.4387 3.66376 21.9358 3.24586 22.5685C2.82795 23.2011 2.60351 23.9418 2.6 24.7H23.4ZM23.4 24.7C23.4 25.0448 23.537 25.3754 23.7808 25.6192M23.4 24.7L23.7808 25.6192M21.85 15.6V16.8995C21.8489 17.4855 21.7896 18.07 21.673 18.6442L21.6315 18.8485M21.85 15.6L21.6315 18.8485M21.6315 18.8485L21.825 18.9261M21.6315 18.8485L21.825 18.9261M21.825 18.9261C22.9797 19.3888 23.97 20.1855 24.6692 21.2143C25.3683 22.243 25.7446 23.4568 25.75 24.7006M21.825 18.9261L25.75 24.7006M26 24.7L25.75 24.7011C25.75 24.7009 25.75 24.7007 25.75 24.7006M26 24.7H25.75C25.75 24.7002 25.75 24.7004 25.75 24.7006M26 24.7C26 25.0448 25.863 25.3754 25.6192 25.6192M26 24.7L25.6192 25.6192M23.7808 25.6192C24.0246 25.863 24.3552 26 24.7 26M23.7808 25.6192L24.7 26M24.7 26C25.0448 26 25.3754 25.863 25.6192 25.6192M24.7 26L25.6192 25.6192M4.15 11.7024V11.7H3.9L4.14995 11.7048C4.14997 11.704 4.14998 11.7032 4.15 11.7024ZM4.15 16.9V16.8995L3.9 16.9H4.15ZM0.25 24.7005C0.25 24.7003 0.25 24.7002 0.25 24.7H0L0.249998 24.7011C0.249999 24.7009 0.249999 24.7007 0.25 24.7005ZM11.65 23.5149L11.95 23.5762V23.27V7.8V7.55H11.7H10.4C9.29935 7.55 8.24378 7.98723 7.46551 8.76551C6.68723 9.54378 6.25 10.5994 6.25 11.7V16.8999C6.25 16.9 6.25 16.9 6.25 16.9C6.24969 18.4561 6.78702 19.9644 7.77104 21.1699C8.75506 22.3753 10.1254 23.2037 11.65 23.5149ZM10.15 5.2V5.45H10.4H15.6H15.85V5.2C15.85 4.44413 15.5497 3.71922 15.0153 3.18475C14.4808 2.65027 13.7559 2.35 13 2.35C12.2441 2.35 11.5192 2.65027 10.9847 3.18475C10.4503 3.71922 10.15 4.44413 10.15 5.2ZM14.05 23.27V23.5762L14.35 23.5149C15.8746 23.2037 17.2449 22.3753 18.229 21.1699C19.213 19.9644 19.7503 18.4561 19.75 16.9C19.75 16.9 19.75 16.9 19.75 16.8999V11.7C19.75 10.5994 19.3128 9.54378 18.5345 8.76551C17.7562 7.98723 16.7006 7.55 15.6 7.55H14.3H14.05V7.8V23.27Z" fill="white" stroke="#676B92" stroke-width="0.5"/>
</svg>
