<svg width="22" height="27" viewBox="0 0 22 27" fill="none" xmlns="http://www.w3.org/2000/svg">
<path d="M20.8093 8.73797V20.8092C20.8093 24.5235 18.5931 25.7616 15.857 25.7616H5.95232C3.21616 25.7616 1 24.5235 1 20.8092V8.73797C1 4.7142 3.21616 3.78564 5.95232 3.78564C5.95232 4.55325 6.2618 5.24658 6.76942 5.75419C7.27703 6.26181 7.97039 6.57133 8.738 6.57133H13.0713C14.6065 6.57133 15.857 5.32086 15.857 3.78564C18.5931 3.78564 20.8093 4.7142 20.8093 8.73797Z" stroke="white" stroke-width="1.5" stroke-linecap="round" stroke-linejoin="round"/>
<path d="M15.8568 3.78568C15.8568 5.3209 14.6064 6.57136 13.0712 6.57136H8.73787C7.97026 6.57136 7.2769 6.26184 6.76928 5.75423C6.26167 5.24662 5.95219 4.55329 5.95219 3.78568C5.95219 2.25046 7.20265 1 8.73787 1H13.0712C13.8388 1 14.5321 1.30952 15.0397 1.81713C15.5473 2.32475 15.8568 3.01807 15.8568 3.78568Z" stroke="white" stroke-width="1.5" stroke-linecap="round" stroke-linejoin="round"/>
<path d="M5.95219 14.6189H10.9045" stroke="white" stroke-width="1.5" stroke-linecap="round" stroke-linejoin="round"/>
<path d="M5.95219 19.5713H15.8568" stroke="white" stroke-width="1.5" stroke-linecap="round" stroke-linejoin="round"/>
</svg>
