<svg width="26" height="26" viewBox="0 0 26 26" fill="none" xmlns="http://www.w3.org/2000/svg">
<path fill-rule="evenodd" clip-rule="evenodd" d="M17.7278 13.0003C17.7278 14.2541 17.2298 15.4565 16.3432 16.3431C15.4567 17.2296 14.2543 17.7277 13.0006 17.7277C11.7468 17.7277 10.5444 17.2296 9.65789 16.3431C8.77136 15.4565 8.27332 14.2541 8.27332 13.0003C8.27332 11.7465 8.77136 10.5441 9.65789 9.65756C10.5444 8.77101 11.7468 8.27295 13.0006 8.27295C14.2543 8.27295 15.4567 8.77101 16.3432 9.65756C17.2298 10.5441 17.7278 11.7465 17.7278 13.0003ZM15.9551 13.0003C15.9551 13.7839 15.6438 14.5354 15.0897 15.0895C14.5357 15.6436 13.7842 15.9549 13.0006 15.9549C12.217 15.9549 11.4655 15.6436 10.9114 15.0895C10.3573 14.5354 10.046 13.7839 10.046 13.0003C10.046 12.2167 10.3573 11.4652 10.9114 10.9111C11.4655 10.357 12.217 10.0457 13.0006 10.0457C13.7842 10.0457 14.5357 10.357 15.0897 10.9111C15.6438 11.4652 15.9551 12.2167 15.9551 13.0003Z" fill="#292D32"/>
<path fill-rule="evenodd" clip-rule="evenodd" d="M13.0006 2.83076e-06C12.6838 2.83076e-06 12.3695 0.0118212 12.0587 0.0330944C11.1569 0.0980956 10.4691 0.76229 10.2717 1.57421L9.85575 3.28788C9.83212 3.38007 9.74939 3.49116 9.58984 3.54789C9.29764 3.6538 9.01054 3.7733 8.72948 3.90598C8.57585 3.9769 8.43876 3.95799 8.35721 3.90835L6.85158 2.99124C6.13777 2.55632 5.18287 2.57287 4.49978 3.16497C4.02351 3.57625 3.57796 4.02299 3.16551 4.49809C2.57461 5.18237 2.55688 6.1373 2.99179 6.84995L3.90887 8.3568C3.95851 8.43834 3.9786 8.57544 3.90651 8.72907C3.77415 9.00917 3.65478 9.29636 3.5496 9.58946C3.49051 9.749 3.3806 9.83291 3.28842 9.85537L1.57479 10.2714C0.762888 10.4687 0.0987094 11.1566 0.0337097 12.0583C-0.0112366 12.6855 -0.0112366 13.315 0.0337097 13.9422C0.0987094 14.8439 0.762888 15.5317 1.57479 15.7291L3.28842 16.1451C3.3806 16.1688 3.49169 16.2515 3.54842 16.411C3.65478 16.7041 3.77415 16.9913 3.90651 17.2726C3.97742 17.4251 3.95851 17.5622 3.90887 17.6437L2.99179 19.1494C2.55688 19.8632 2.57342 20.8181 3.16551 21.5012C3.57678 21.9775 4.02351 22.4231 4.4986 22.8355C5.18287 23.4264 6.13777 23.4442 6.8504 23.0093L8.35721 22.0921C8.43876 22.0425 8.57585 22.0224 8.72948 22.0945C9.00957 22.2269 9.29675 22.3462 9.58984 22.4514C9.74939 22.5105 9.8333 22.6204 9.85575 22.7126L10.2717 24.4263C10.4691 25.2382 11.1569 25.9024 12.0587 25.9662C12.6858 26.0113 13.3153 26.0113 13.9425 25.9662C14.8442 25.9024 15.532 25.2382 15.7294 24.4263L16.1454 22.7126C16.169 22.6204 16.2517 22.5093 16.4113 22.4526C16.7044 22.3462 16.9915 22.2269 17.2728 22.0945C17.4253 22.0236 17.5623 22.0425 17.6439 22.0921L19.1495 23.0093C19.8633 23.4442 20.8182 23.4276 21.5013 22.8355C21.9776 22.4242 22.4231 21.9775 22.8356 21.5024C23.4265 20.8181 23.4442 19.8632 23.0093 19.1505L22.0922 17.6437C22.0426 17.5622 22.0225 17.4251 22.0946 17.2714C22.227 16.9913 22.3463 16.7041 22.4515 16.411C22.5106 16.2515 22.6205 16.1676 22.7127 16.1451L24.4263 15.7291C25.2382 15.5317 25.9024 14.8439 25.9662 13.9422C26.0113 13.315 26.0113 12.6855 25.9662 12.0583C25.9024 11.1566 25.2382 10.4687 24.4263 10.2714L22.7127 9.85537C22.6205 9.83173 22.5094 9.749 22.4527 9.58946C22.3467 9.29726 22.2273 9.01015 22.0946 8.72907C22.0237 8.57544 22.0426 8.43834 22.0922 8.3568L23.0093 6.85113C23.4442 6.1373 23.4277 5.18237 22.8356 4.49927C22.4243 4.02299 21.9776 3.57743 21.5025 3.16497C20.8182 2.57405 19.8633 2.55632 19.1507 2.99124L17.6439 3.90835C17.5623 3.95799 17.4253 3.97808 17.2716 3.90598C16.9905 3.77372 16.7034 3.65462 16.4113 3.54907C16.2517 3.48998 16.1678 3.38007 16.1454 3.28788L15.7294 1.57421C15.532 0.76229 14.8442 0.0980956 13.9425 0.0330944C13.629 0.0108344 13.3148 -0.000203172 13.0006 2.83076e-06ZM12.1851 1.80231C12.728 1.76338 13.2731 1.76338 13.816 1.80231C13.881 1.80704 13.9755 1.8614 14.0075 1.9914L14.4223 3.70507C14.6031 4.44727 15.1621 4.98146 15.8085 5.21546C16.0508 5.30292 16.2872 5.40101 16.5176 5.50974C16.8397 5.6655 17.1953 5.73903 17.5527 5.72377C17.9101 5.70851 18.2581 5.60493 18.5657 5.42229L20.0725 4.50518C20.1872 4.43427 20.2923 4.46263 20.342 4.50518C20.7532 4.86209 21.1385 5.24737 21.4954 5.65865C21.538 5.70829 21.5663 5.81229 21.4954 5.92811L20.5783 7.43378C20.3955 7.74152 20.2918 8.08979 20.2765 8.44742C20.2613 8.80505 20.3349 9.16089 20.4909 9.48309C20.5996 9.71355 20.6977 9.94992 20.784 10.1922C21.018 10.8387 21.5545 11.3977 22.2943 11.5773L24.008 11.9945C24.1391 12.0252 24.1935 12.1198 24.1982 12.1848C24.2371 12.7277 24.2371 13.2728 24.1982 13.8157C24.1935 13.8807 24.1391 13.9753 24.0091 14.0072L22.2955 14.422C21.9489 14.5104 21.6295 14.6833 21.366 14.9252C21.1024 15.1671 20.9029 15.4705 20.7852 15.8083C20.6978 16.0492 20.5992 16.2858 20.4897 16.5174C20.3341 16.8395 20.2608 17.1952 20.2763 17.5526C20.2917 17.91 20.3955 18.258 20.5783 18.5655L21.4954 20.0724C21.5663 20.187 21.538 20.2922 21.4954 20.3418C21.1392 20.7536 20.7538 21.1391 20.342 21.4953C20.2923 21.5379 20.1883 21.5662 20.0725 21.4953L18.5657 20.5782C18.2581 20.3956 17.9101 20.292 17.5527 20.2767C17.1953 20.2615 16.8397 20.335 16.5176 20.4907C16.286 20.5995 16.0494 20.6973 15.8085 20.7838C15.4709 20.9017 15.1678 21.1013 14.9261 21.3649C14.6844 21.6284 14.5117 21.9477 14.4235 22.2942L14.0063 24.0079C13.9755 24.1391 13.881 24.1935 13.816 24.1982C13.2731 24.2371 12.728 24.2371 12.1851 24.1982C12.1201 24.1935 12.0256 24.1391 11.9936 24.0091L11.5788 22.2954C11.4904 21.9488 11.3176 21.6294 11.0757 21.3658C10.8338 21.1023 10.5304 20.9027 10.1926 20.785C9.95171 20.6977 9.71509 20.5991 9.48348 20.4896C9.1612 20.3338 8.80531 20.2603 8.44769 20.2758C8.09006 20.2913 7.74185 20.3952 7.43422 20.5782L5.92859 21.4953C5.81395 21.5662 5.70877 21.5379 5.65914 21.4953C5.24736 21.1391 4.86188 20.7536 4.50569 20.3418C4.46314 20.2922 4.43478 20.1882 4.50569 20.0724L5.42277 18.5655C5.60541 18.2579 5.70899 17.9099 5.72425 17.5525C5.73951 17.1951 5.66598 16.8394 5.51023 16.5174C5.40114 16.2858 5.30294 16.0491 5.21596 15.8083C5.09819 15.4708 4.89875 15.1678 4.63543 14.9261C4.37211 14.6844 4.05308 14.5116 3.70678 14.4232L1.99315 14.006C1.86197 13.9753 1.80761 13.8807 1.80288 13.8157C1.76395 13.2728 1.76395 12.7277 1.80288 12.1848C1.80761 12.1198 1.86197 12.0252 1.99197 11.9933L3.7056 11.5785C4.05224 11.4901 4.3716 11.3172 4.63515 11.0753C4.8987 10.8334 5.09824 10.53 5.21596 10.1922C5.30294 9.95137 5.40114 9.71474 5.51023 9.48309C5.66619 9.16089 5.73983 8.80505 5.72457 8.44742C5.70931 8.08979 5.60562 7.74152 5.42277 7.43378L4.50569 5.92811C4.43478 5.81348 4.46314 5.70829 4.50569 5.65865C4.86259 5.24737 5.24787 4.86209 5.65914 4.50518C5.70877 4.46263 5.81277 4.43427 5.92859 4.50518L7.43422 5.42229C7.74195 5.60513 8.09021 5.70883 8.44784 5.72409C8.80546 5.73935 9.16129 5.66571 9.48348 5.50974C9.71513 5.40065 9.95175 5.30245 10.1926 5.21546C10.53 5.09769 10.8331 4.89825 11.0748 4.63492C11.3164 4.37159 11.4892 4.05256 11.5777 3.70625L11.9948 1.99259C12.0256 1.8614 12.1201 1.80704 12.1851 1.80231Z" fill="#292D32"/>
</svg>
