<svg width="22" height="25" viewBox="0 0 22 25" fill="none" xmlns="http://www.w3.org/2000/svg">
<path d="M19.4 12.5V5.31081C19.4 5.12781 19.3273 4.95231 19.1979 4.8229L15.577 1.2021C15.4477 1.07269 15.2722 1 15.0892 1H1.69C1.30892 1 1 1.30892 1 1.69V23.31C1 23.6911 1.30892 24 1.69 24H9.04999" stroke="white" stroke-width="1.5" stroke-linecap="round" stroke-linejoin="round"/>
<path d="M5.59986 10.2001H14.7999M5.59986 5.6001H10.1999M5.59986 14.8001H9.04986" stroke="white" stroke-width="1.5" stroke-linecap="round" stroke-linejoin="round"/>
<path d="M15.1515 18.3805L16.197 16.1637C16.3312 15.879 16.719 15.879 16.8532 16.1637L17.8986 18.3805L20.2367 18.7382C20.5367 18.784 20.6562 19.17 20.4391 19.3914L18.7475 21.1157L19.1467 23.5517C19.198 23.8645 18.8843 24.1031 18.6159 23.9554L16.5251 22.8046L14.4342 23.9554C14.1658 24.1031 13.8521 23.8645 13.9034 23.5517L14.3026 21.1157L12.611 19.3914C12.3939 19.17 12.5134 18.784 12.8134 18.7382L15.1515 18.3805Z" stroke="white" stroke-width="1.5" stroke-linecap="round" stroke-linejoin="round"/>
<path d="M14.7996 1V4.91C14.7996 5.29107 15.1085 5.6 15.4896 5.6H19.3996" stroke="white" stroke-width="1.5" stroke-linecap="round" stroke-linejoin="round"/>
</svg>
