<svg width="21" height="27" viewBox="0 0 21 27" fill="none" xmlns="http://www.w3.org/2000/svg">
<path d="M5.81947 1C3.67964 1 2.16733 2.31151 1.57119 3.49751C0.975051 4.68352 1.00015 5.81932 1.00015 5.81932L1.05035 25.8559L10.6827 21.9967L20.3276 25.8559L20.2774 5.81304C20.2774 5.80677 20.2962 4.67724 19.7064 3.49751C19.1102 2.31151 17.5979 1 15.4581 1L5.81947 1ZM5.81947 4.21288H15.4581C16.5751 4.2317 17.0708 4.80274 17.0645 5.81932L17.1022 21.1119L10.6827 18.5391L4.25068 21.1119L4.21303 5.81304C4.20048 4.77137 4.8531 4.21288 5.81947 4.21288Z" fill="white" stroke="#676B92" stroke-width="1.2"/>
</svg>
