<svg width="21" height="28" viewBox="0 0 21 28" fill="none" xmlns="http://www.w3.org/2000/svg">
<path d="M19.1695 10.3835C19.1695 13.26 17.788 15.8136 15.649 17.4176L16.6073 18.6957C19.1313 16.8029 20.767 13.7841 20.767 10.3835H19.1695ZM10.3835 1.59746C15.2359 1.59746 19.1695 5.53109 19.1695 10.3835H20.767C20.767 4.64884 16.1182 0 10.3835 0V1.59746ZM1.59746 10.3835C1.59746 5.53109 5.53109 1.59746 10.3835 1.59746V0C4.64884 0 0 4.64884 0 10.3835H1.59746ZM5.11798 17.4176C2.97894 15.8136 1.59746 13.26 1.59746 10.3835H0C0 13.7841 1.63559 16.8029 4.15962 18.6957L5.11798 17.4176ZM7.98314 25.9643C7.93425 23.6222 7.44911 21.3157 6.55895 19.1613L5.08258 19.7714C5.89734 21.7432 6.34127 23.854 6.38606 25.9977L7.98314 25.9643ZM12.8838 25.8124C11.3098 26.5993 9.45711 26.5993 7.88314 25.8124L7.16866 27.2411C9.19241 28.253 11.5745 28.253 13.5984 27.2411L12.8838 25.8124ZM14.208 19.1613C13.3178 21.3157 12.8327 23.6222 12.7838 25.9643L14.381 25.9977C14.4257 23.854 14.8696 21.7432 15.6843 19.7714L14.208 19.1613ZM13.5984 27.2411C14.0786 27.0009 14.3701 26.5157 14.381 25.9977L12.7838 25.9643C12.7849 25.9084 12.817 25.8457 12.8838 25.8124L13.5984 27.2411ZM6.38606 25.9977C6.39689 26.5157 6.68833 27.0009 7.16866 27.2411L7.88314 25.8124C7.94991 25.8457 7.98202 25.9084 7.98314 25.9643L6.38606 25.9977ZM4.15962 18.6957C4.66849 19.0772 4.78127 19.1713 4.82956 19.2336L6.09192 18.2546C5.8765 17.9768 5.52923 17.726 5.11798 17.4176L4.15962 18.6957ZM6.55895 19.1613C6.42033 18.8259 6.30376 18.5278 6.09192 18.2546L4.82956 19.2336C4.88142 19.3005 4.91696 19.3706 5.08258 19.7714L6.55895 19.1613ZM15.649 17.4176C15.2377 17.726 14.8904 17.9768 14.675 18.2546L15.9374 19.2336C15.9856 19.1713 16.0984 19.0772 16.6073 18.6957L15.649 17.4176ZM15.6843 19.7714C15.85 19.3706 15.8856 19.3005 15.9374 19.2336L14.675 18.2546C14.4632 18.5278 14.3466 18.8259 14.208 19.1613L15.6843 19.7714Z" fill="white"/>
<path d="M14.3772 20.7671C11.8134 21.7925 8.95365 21.7925 6.38989 20.7671" stroke="white" stroke-width="2.80189"/>
</svg>
