<svg width="30" height="23" viewBox="0 0 30 23" fill="none" xmlns="http://www.w3.org/2000/svg">
<path d="M6.95257 1.37606C6.4751 0.898586 5.68463 0.857761 5.18309 1.35759C2.59956 3.93238 1 7.49588 1 11.4322C1 15.5216 2.72642 19.2084 5.48893 21.8026C5.99358 22.2764 6.76279 22.2262 7.23004 21.759C7.7749 21.2142 7.70861 20.3477 7.1833 19.8455C4.96617 17.7261 3.58606 14.7406 3.58606 11.4322C3.58606 8.24871 4.86374 5.36455 6.93526 3.26305C7.4356 2.7555 7.48628 1.90977 6.95257 1.37606Z" fill="white" stroke="#676B92"/>
<path d="M9.99013 4.41307C9.52605 3.94899 8.75056 3.89102 8.25118 4.38516C6.43585 6.18147 5.31042 8.67567 5.31042 11.4319C5.31042 14.3482 6.57017 16.9706 8.57383 18.784C9.07675 19.2391 9.82014 19.169 10.2691 18.72C10.8348 18.1544 10.7283 17.2639 10.1981 16.7641C8.78048 15.4275 7.89647 13.5333 7.89647 11.4319C7.89647 9.44816 8.68426 7.64928 9.96498 6.32958C10.4586 5.82099 10.5387 4.96163 9.99013 4.41307Z" fill="white" stroke="#676B92"/>
<path d="M19.5945 4.41307C20.0586 3.94899 20.834 3.89102 21.3335 4.38516C23.1487 6.18147 24.2742 8.67567 24.2742 11.4319C24.2742 14.3482 23.0144 16.9706 21.0108 18.784C20.5079 19.2391 19.7644 19.169 19.3155 18.72C18.7499 18.1544 18.8562 17.2639 19.3865 16.7641C20.8042 15.4275 21.6881 13.5333 21.6881 11.4319C21.6881 9.44816 20.9004 7.64928 19.6196 6.32958C19.126 5.82099 19.0459 4.96163 19.5945 4.41307Z" fill="white" stroke="#676B92"/>
<path d="M22.631 1.37606C23.1086 0.898586 23.899 0.857761 24.4005 1.35759C26.984 3.93238 28.5836 7.49588 28.5836 11.4322C28.5836 15.5216 26.8571 19.2084 24.0947 21.8026C23.5901 22.2764 22.8208 22.2262 22.3536 21.759C21.8086 21.2142 21.875 20.3477 22.4003 19.8455C24.6174 17.7261 25.9975 14.7406 25.9975 11.4322C25.9975 8.24871 24.7198 5.36455 22.6482 3.26305C22.1479 2.7555 22.0972 1.90977 22.631 1.37606Z" fill="white" stroke="#676B92"/>
<path d="M14.7921 8.84595C13.3638 8.84595 12.206 10.0038 12.206 11.432C12.206 12.8602 13.3638 14.0181 14.7921 14.0181C16.2203 14.0181 17.3781 12.8602 17.3781 11.432C17.3781 10.0038 16.2203 8.84595 14.7921 8.84595Z" fill="white" stroke="#676B92"/>
</svg>
