<svg width="30" height="24" viewBox="0 0 30 24" fill="none" xmlns="http://www.w3.org/2000/svg">
<path d="M24.4116 1H5.13145C4.03572 1 2.98487 1.43528 2.21007 2.21007C1.43528 2.98487 1 4.03572 1 5.13145V18.903C1 19.9987 1.43528 21.0495 2.21007 21.8243C2.98487 22.5991 4.03572 23.0344 5.13145 23.0344H24.4116C25.5073 23.0344 26.5582 22.5991 27.3329 21.8243C28.1077 21.0495 28.543 19.9987 28.543 18.903V5.13145C28.543 4.03572 28.1077 2.98487 27.3329 2.21007C26.5582 1.43528 25.5073 1 24.4116 1ZM5.13145 3.7543H24.4116C24.7768 3.7543 25.1271 3.89939 25.3854 4.15766C25.6436 4.41593 25.7887 4.76621 25.7887 5.13145L14.7715 11.852L3.7543 5.13145C3.7543 4.76621 3.89939 4.41593 4.15766 4.15766C4.41593 3.89939 4.76621 3.7543 5.13145 3.7543ZM25.7887 18.903C25.7887 19.2682 25.6436 19.6185 25.3854 19.8768C25.1271 20.135 24.7768 20.2801 24.4116 20.2801H5.13145C4.76621 20.2801 4.41593 20.135 4.15766 19.8768C3.89939 19.6185 3.7543 19.2682 3.7543 18.903V8.27136L14.0554 14.5649C14.2647 14.6858 14.5022 14.7494 14.744 14.7494C14.9857 14.7494 15.2232 14.6858 15.4325 14.5649L25.7887 8.27136V18.903Z" fill="white" stroke="#676B92" stroke-width="1.1"/>
</svg>
