<svg width="25" height="25" viewBox="0 0 25 25" fill="none" xmlns="http://www.w3.org/2000/svg">
<path d="M18.5618 13.6858H24V21.2809C23.9885 22.7766 22.7803 23.9862 21.2863 24H21.2727C19.7827 23.984 18.5789 22.7809 18.5618 21.2927V13.6858H18.5618ZM22.4667 15.2191H20.0951V21.2768C20.1075 21.9282 20.6317 22.4532 21.2816 22.4666H21.2829C21.9351 22.4575 22.461 21.9295 22.4667 21.2773V21.2768L22.4667 15.2191ZM21.2809 24H3.71912C2.22345 23.9885 1.01375 22.7803 1 21.2862V1H20.0951V21.2768C20.1076 21.931 20.6364 22.4577 21.2903 22.4667H21.2911L21.2809 24ZM2.53334 2.53332V21.2809C2.5408 21.9342 3.06957 22.4615 3.72271 22.4667H18.8378C18.6667 22.1235 18.5651 21.7195 18.5618 21.2922V2.53332H2.53334ZM4.90488 4.90486H16.2004V11.3142H4.90488V4.90486ZM14.6671 6.4382H6.43824V9.78083H14.6671V6.4382ZM8.59512 15.2191H4.69024V13.6858H8.59512V15.2191ZM8.59512 19.124H4.69024V17.5906H8.59512V19.124ZM10.7622 13.6857H16.2005V19.124H10.7622L10.7622 13.6857ZM14.6671 15.2191H12.2956V17.5907H14.6671L14.6671 15.2191Z" fill="white" stroke="#676B92" stroke-width="0.4"/>
</svg>
